<svg width="51" height="14" viewBox="0 0 51 14" fill="none" xmlns="http://www.w3.org/2000/svg">
<path d="M5.806 0.147999H8.2L13.15 13H10.738L9.532 9.598H4.402L3.196 13H0.874L5.806 0.147999ZM5.014 7.888H8.938L7.012 2.362H6.958L5.014 7.888ZM18.1596 3.694H19.7076V0.903999H21.7596V3.694H23.6136V5.224H21.7596V10.192C21.7596 10.408 21.7656 10.594 21.7776 10.75C21.8016 10.906 21.8436 11.038 21.9036 11.146C21.9756 11.254 22.0776 11.338 22.2096 11.398C22.3416 11.446 22.5216 11.47 22.7496 11.47C22.8936 11.47 23.0376 11.47 23.1816 11.47C23.3256 11.458 23.4696 11.434 23.6136 11.398V12.982C23.3856 13.006 23.1636 13.03 22.9476 13.054C22.7316 13.078 22.5096 13.09 22.2816 13.09C21.7416 13.09 21.3036 13.042 20.9676 12.946C20.6436 12.838 20.3856 12.688 20.1936 12.496C20.0136 12.292 19.8876 12.04 19.8156 11.74C19.7556 11.44 19.7196 11.098 19.7076 10.714V5.224H18.1596V3.694ZM29.3558 13.252C28.6118 13.252 27.9458 13.132 27.3578 12.892C26.7818 12.64 26.2898 12.298 25.8818 11.866C25.4858 11.434 25.1798 10.918 24.9638 10.318C24.7598 9.718 24.6578 9.058 24.6578 8.338C24.6578 7.63 24.7598 6.976 24.9638 6.376C25.1798 5.776 25.4858 5.26 25.8818 4.828C26.2898 4.396 26.7818 4.06 27.3578 3.82C27.9458 3.568 28.6118 3.442 29.3558 3.442C30.0998 3.442 30.7598 3.568 31.3358 3.82C31.9238 4.06 32.4158 4.396 32.8118 4.828C33.2198 5.26 33.5258 5.776 33.7298 6.376C33.9458 6.976 34.0538 7.63 34.0538 8.338C34.0538 9.058 33.9458 9.718 33.7298 10.318C33.5258 10.918 33.2198 11.434 32.8118 11.866C32.4158 12.298 31.9238 12.64 31.3358 12.892C30.7598 13.132 30.0998 13.252 29.3558 13.252ZM29.3558 11.632C29.8118 11.632 30.2078 11.536 30.5438 11.344C30.8798 11.152 31.1558 10.9 31.3718 10.588C31.5878 10.276 31.7438 9.928 31.8398 9.544C31.9478 9.148 32.0018 8.746 32.0018 8.338C32.0018 7.942 31.9478 7.546 31.8398 7.15C31.7438 6.754 31.5878 6.406 31.3718 6.106C31.1558 5.794 30.8798 5.542 30.5438 5.35C30.2078 5.158 29.8118 5.062 29.3558 5.062C28.8998 5.062 28.5038 5.158 28.1678 5.35C27.8318 5.542 27.5558 5.794 27.3398 6.106C27.1238 6.406 26.9618 6.754 26.8538 7.15C26.7578 7.546 26.7098 7.942 26.7098 8.338C26.7098 8.746 26.7578 9.148 26.8538 9.544C26.9618 9.928 27.1238 10.276 27.3398 10.588C27.5558 10.9 27.8318 11.152 28.1678 11.344C28.5038 11.536 28.8998 11.632 29.3558 11.632ZM40.6795 0.147999H50.4535V1.858L42.9655 11.056H50.6335V13H40.1035V11.164L47.5915 2.092H40.6795V0.147999Z" fill="#FBFBFB"/>
</svg>
